<?xml version="1.0" encoding="utf-8"?>
<!-- Svg Vector Icons : http://www.onlinewebfonts.com/icon -->
<!DOCTYPE svg PUBLIC "-//W3C//DTD SVG 1.1//EN" "http://www.w3.org/Graphics/SVG/1.1/DTD/svg11.dtd">
<svg version="1.1" xmlns="http://www.w3.org/2000/svg" xmlns:xlink="http://www.w3.org/1999/xlink" x="0px" y="0px" viewBox="0 0 1000 1000" enable-background="new 0 0 1000 1000" xml:space="preserve">
<metadata> Svg Vector Icons : http://www.onlinewebfonts.com/icon </metadata>
<g><g transform="translate(0.000000,511.000000) scale(0.100000,-0.100000)"><path d="M782.3,4945c-62.8-56.1-74-80.7-74-168.2c0-80.7,13.5-114.4,62.8-163.7l60.6-62.8l679.6-6.7c641.5-4.5,681.9-2.2,749.1,38.1c127.8,80.7,136.8,273.6,17.9,379c-58.3,49.4-65,49.4-740.2,49.4H854L782.3,4945z"/><path d="M3949.2,4958.4c-399.2-134.6-699.8-448.6-816.4-845.6c-33.6-109.9-35.9-401.5-35.9-2767.7V-1297l-143.5-152.5c-179.4-190.6-262.4-309.5-372.3-542.8c-145.8-307.3-186.2-493.4-188.4-870.2c0-271.4,6.7-354.4,49.3-500.2c271.4-948.7,1240.3-1574.5,2162.1-1397.3c724.4,139.1,1321,686.3,1525.2,1397.3c42.6,145.8,49.3,228.8,49.3,500.2c-2.2,376.8-42.6,562.9-188.4,870.2c-109.9,233.3-192.9,352.1-372.3,542.8L5474.4-1297v2642.1c0,2366.2-2.2,2657.8-35.9,2767.7c-118.9,406-455.3,742.4-859,861.3C4400,5025.7,4128.6,5019,3949.2,4958.4z M4633.3,4462.7c136.8-69.5,244.5-179.4,311.8-325.2c47.1-103.2,47.1-109.9,53.8-2906.8l4.5-2805.8l67.3-38.1c222.1-132.3,480-462,578.7-740.1c80.7-233.3,94.2-567.5,29.2-825.4c-136.8-547.3-471-915.1-977.9-1074.4c-222-69.5-607.8-69.5-829.9,0c-246.7,76.3-412.7,177.2-587.6,349.9c-488.9,486.7-574.2,1318.8-195.1,1875.1c105.4,154.7,293.8,343.2,414.9,414.9l65,38.1v2743c0,1888.5,6.7,2776.7,24.7,2855.2c47.1,224.3,235.5,421.7,462,484.5C4220.6,4554.7,4485.3,4534.5,4633.3,4462.7z"/><path d="M4153.3,2820.9c-116.6-83-114.4-11.2-114.4-2480.6v-2294.5l-141.3-65c-275.9-127.8-504.6-428.4-556.2-728.9c-74-412.7,233.3-885.9,668.4-1036.2c518.1-177.2,1112.5,201.9,1220.1,778.3c67.3,363.4-186.2,814.2-556.2,986.9l-141.3,65V340.3c0,2469.4,2.2,2397.7-114.4,2480.6c-29.2,20.2-87.5,35.9-132.3,35.9C4240.8,2856.8,4182.5,2841.1,4153.3,2820.9z M4420.2-2416.2c215.3-49.3,336.4-215.3,336.4-457.5c0-293.8-183.9-482.2-471-482.2c-190.6,0-376.8,112.1-439.6,262.4c-44.9,105.4-38.1,336.4,11.2,446.3C3947-2452.1,4171.2-2357.9,4420.2-2416.2z"/><path d="M6405.2,4947.2c-166-80.7-305-222.1-379-385.8c-51.6-109.9-58.3-152.5-58.3-381.3c0-237.7,4.5-269.1,65-392.5c80.7-168.2,219.8-305,390.3-383.5c327.5-148,737.9,26.9,908.4,390.3c53.8,114.4,60.6,152.5,60.6,385.8s-6.7,271.4-60.6,385.8c-121.1,260.2-363.3,426.1-634.7,439.6C6559.9,5012.2,6521.8,5003.3,6405.2,4947.2z M6817.9,4505.4c85.2-42.6,92-67.3,92-325.2c0-257.9-6.7-282.6-92-325.2c-107.7-56.1-237.8-42.6-314,31.4c-62.8,65-65.1,71.8-65.1,293.8c0,222,2.2,228.8,65.1,293.8C6580.1,4548,6710.2,4561.4,6817.9,4505.4z"/><path d="M1336.2,4047.8c-163.7-69.5-204.1-269.1-80.7-390.3l69.5-71.8h448.6h448.6l67.3,69.5c100.9,98.7,100.9,233.3,2.2,331.9l-69.5,69.5l-421.7,4.5C1569.5,4063.5,1360.9,4056.8,1336.2,4047.8z"/><path d="M7950.5,3745l-76.3-76.3V2641.5c0-982.4,2.2-1031.7,44.8-1101.3c76.3-127.8,271.4-136.8,376.8-17.9c47.1,56.1,49.3,76.3,49.3,462v401.5h282.6h282.6l76.3,76.3c89.7,89.7,100.9,186.2,31.4,298.3c-53.8,89.7-78.5,94.2-403.7,103.2l-257.9,4.5v235.5v235.5l408.2,11.2l410.4,11.2l60.6,62.8c89.7,87.5,89.7,235.5,0,323l-60.6,62.8l-574.2,6.7l-571.9,6.7L7950.5,3745z"/><path d="M782.3,3038.5c-62.8-56.1-74-80.8-74-170.5c0-89.7,11.2-114.4,74-170.5l71.8-65h684.1c675.1,0,681.8,0,740.2,51.6c118.9,103.2,109.9,298.3-17.9,374.6c-67.3,42.6-116.6,44.9-737.9,44.9H854L782.3,3038.5z"/><path d="M1282.4,2103.2c-134.6-94.2-130.1-309.5,4.5-390.3c65-40.4,114.4-44.9,486.7-44.9c372.3,0,421.7,4.5,486.7,44.9c127.8,76.3,136.8,271.4,17.9,376.8c-56.1,47.1-74,49.3-500.2,49.3C1405.8,2139.1,1327.3,2132.4,1282.4,2103.2z"/><path d="M838.3,1165.7c-74-33.6-141.3-134.6-141.3-215.3c0-83,67.3-181.7,145.8-215.3c103.2-42.6,1294.1-44.9,1377.1-2.2c152.5,78.5,188.4,266.9,71.8,383.5l-69.5,69.5l-657.2,4.5C1042.4,1194.9,896.6,1190.4,838.3,1165.7z"/><path d="M1286.9,187.8c-127.8-76.3-136.8-271.4-17.9-374.6c56.1-49.4,74-51.6,504.7-51.6c430.6,0,448.6,2.2,504.6,51.6c118.9,103.2,109.9,298.3-17.9,374.6c-65.1,40.4-114.4,44.9-486.7,44.9C1401.3,232.7,1352,228.2,1286.9,187.8z"/><path d="M782.3-796.8c-62.8-56.1-74-80.7-74-168.2c0-80.7,13.5-114.4,62.8-163.7l60.6-62.8l679.6-6.7c641.5-4.5,681.9-2.2,749.1,38.1c127.8,80.7,136.8,273.6,17.9,379c-58.3,49.4-65,49.4-740.2,49.4H854L782.3-796.8z"/></g></g>
</svg>